<?xml version="1.0" encoding="utf-8"?><!-- Uploaded to: SVG Repo, www.svgrepo.com, Generator: SVG Repo Mixer Tools -->
<svg width="800px" height="800px" viewBox="0 0 1024 1024" xmlns="http://www.w3.org/2000/svg"><path fill="#000000" d="M452.864 149.312a29.12 29.12 0 0 1 41.728.064L826.24 489.664a32 32 0 0 1 0 44.672L494.592 874.624a29.12 29.12 0 0 1-41.728 0 30.592 30.592 0 0 1 0-42.752L764.736 512 452.864 192a30.592 30.592 0 0 1 0-42.688zm-256 0a29.12 29.12 0 0 1 41.728.064L570.24 489.664a32 32 0 0 1 0 44.672L238.592 874.624a29.12 29.12 0 0 1-41.728 0 30.592 30.592 0 0 1 0-42.752L508.736 512 196.864 192a30.592 30.592 0 0 1 0-42.688z"/></svg>